#!OML:ASF F:\VICON\USERDATA\INSTALL\rory3\rory3.ASF
:FULLY-SPECIFIED
:DEGREES
157
root -2.12113 17.6435 8.67253 17.5254 9.45226 -9.98612
lowerback 2.57822 -4.03749 1.64777
upperback -3.51572 -5.14049 4.3941
thorax -4.82554 -2.53712 3.97973
lowerneck -17.9315 -3.10616 -5.06628
upperneck 8.16402 -4.26016 9.9834
head 5.72497 -1.48393 3.57773
rclavicle 7.45443e-015 2.54444e-014
rhumerus 34.297 25.2408 -44.7428
rradius 83.4801
rwrist 5.18048
rhand -17.3013 -49.0905
rfingers 7.12502
rthumb 8.94463 281.119
lclavicle 7.45443e-015 2.54444e-014
lhumerus 49.2288 -21.1424 27.6356
lradius 85.4705
lwrist 4.65826
lhand -5.07861 -24.4944
lfingers 7.12502
lthumb 20.7179 4.41968
rfemur -99.893 4.68457 17.3521
rtibia 69.2067
rfoot 6.51305 -15.906
rtoes -12.9533
lfemur -26.7923 -10.897 -13.8463
ltibia 37.8478
lfoot -11.4424 13.8749
ltoes -14.2831
158
root -2.0797 17.9597 9.08577 17.8227 9.35386 -10.7121
lowerback 2.46142 -4.09592 2.53585
upperback -3.5697 -5.15677 4.87955
thorax -4.8526 -2.56802 3.99021
lowerneck -18.416 -2.75565 -4.85698
upperneck 8.48144 -3.79428 9.59916
head 5.85286 -1.26077 3.47016
rclavicle 2.8128e-014 1.27222e-014
rhumerus 35.7757 23.7614 -41.6008
rradius 81.5855
rwrist 5.87927
rhand -17.0034 -48.5419
rfingers 7.12502
rthumb 9.2321 281.68
lclavicle 2.8128e-014 1.27222e-014
lhumerus 50.5465 -19.2218 25.9249
lradius 82.8748
lwrist 5.96948
lhand -3.15396 -21.2822
lfingers 7.12502
lthumb 22.5662 7.41896
rfemur -101.554 4.57659 18.047
rtibia 66.9579
rfoot 8.16036 -14.8154
rtoes -13.0706
lfemur -24.01 -12.5203 -13.2019
ltibia 34.3766
lfoot -6.48348 15.4613
ltoes -20.2926
159
root -2.0326 18.2643 9.51442 18.1239 9.2716 -11.5668
lowerback 2.42104 -4.15472 3.75118
upperback -3.76328 -5.14438 5.37191
thorax -5.10251 -2.59548 3.84565
lowerneck -19.3156 -2.43301 -4.68233
upperneck 9.47367 -3.37624 9.09509
head 6.2675 -1.05122 3.3312
rclavicle -4.21423e-014 7.11649e-014
rhumerus 37.1598 22.4355 -38.5699
rradius 79.3059
rwrist 6.38957
rhand -16.0303 -47.7742
rfingers 7.12502
rthumb 10.1709 282.492
lclavicle -4.21423e-014 7.11649e-014
lhumerus 51.4797 -17.6617 24.1194
lradius 79.8269
lwrist 6.86572
lhand -4.26593 -23.3519
lfingers 7.12502
lthumb 21.4986 5.47502
rfemur -103.107 4.51135 19.1448
rtibia 65.0734
rfoot 9.63029 -13.8008
rtoes -13.3174
lfemur -21.8239 -14.3859 -12.4507
ltibia 31.7437
lfoot -1.48891 17.6647
ltoes -20.8545
160
root -1.99042 18.5789 9.93864 18.6166 9.21538 -12.14
lowerback 2.39524 -4.23465 4.79987
upperback -4.27532 -5.14762 5.76931
thorax -5.69336 -2.63091 3.7245
lowerneck -19.8379 -2.16459 -4.39719
upperneck 10.6903 -3.03453 8.30154
head 6.69699 -0.910484 3.07473
rclavicle -2.08724e-014 -2.14687e-014
rhumerus 38.2151 21.5773 -35.6231
rradius 76.6709
rwrist 6.29299
rhand -16.2712 -46.5835
rfingers 7.12502
rthumb 9.93848 283.671
lclavicle -2.08724e-014 -2.14687e-014
lhumerus 51.9732 -16.6667 22.159
lradius 76.5805
lwrist 8.01943
lhand -6.31735 -25.6889
lfingers 7.12502
lthumb 19.5273 3.35046
rfemur -104.651 4.42435 19.8911
rtibia 63.3933
rfoot 11.4087 -12.5334
rtoes -14.4672
lfemur -20.4699 -18.0772 -11.638
ltibia 29.8473
lfoot 0.238655 22.863
ltoes -7.28679
161
root -1.95494 18.8745 10.3678 19.3164 9.13373 -12.197
lowerback 2.07068 -4.23861 5.38389
upperback -4.89523 -5.10027 5.91864
thorax -6.21117 -2.63418 3.5782
lowerneck -19.5095 -1.94275 -3.92347
upperneck 11.4517 -2.78054 7.45271
head 6.84907 -0.838919 2.75356
rclavicle 6.42074e-014 -5.32743e-014
rhumerus 38.6251 20.8473 -32.939
rradius 74.0951
rwrist 5.74031
rhand -17.2842 -45.7374
rfingers 7.12502
rthumb 8.96113 284.473
lclavicle 6.42074e-014 -5.32743e-014
lhumerus 52.6229 -16.0989 19.7977
lradius 72.9811
lwrist 9.23067
lhand -9.79148 -28.2308
lfingers 7.12502
lthumb 16.1844 1.11351
rfemur -106.383 4.21485 19.9998
rtibia 61.9662
rfoot 13.005 -11.5933
rtoes -14.5413
lfemur -19.4485 -25.4426 -11.0376
ltibia 28.4588
lfoot -18.8494 27.2386
ltoes 34.5431
162
root -1.9343 19.1371 10.8025 20.3627 9.1113 -11.8617
lowerback 1.3471 -4.2633 5.54322
upperback -5.48091 -5.14826 6.01156
thorax -6.42757 -2.66998 3.5722
lowerneck -19.5239 -1.75421 -3.54728
upperneck 12.2412 -2.53969 6.67256
head 7.0753 -0.766397 2.46974
rclavicle 3.97569e-016 9.93923e-015
rhumerus 39.075 20.1045 -30.3487
rradius 71.6299
rwrist 4.74476
rhand -18.6994 -45.6481
rfingers 7.12502
rthumb 7.59532 284.508
lclavicle 3.97569e-016 9.93923e-015
lhumerus 53.257 -15.5653 17.2137
lradius 68.7762
lwrist 10.4453
lhand -15.3909 -33.5889
lfingers 7.12502
lthumb 10.7877 -3.88592
rfemur -108.461 3.87975 19.6045
rtibia 60.6309
rfoot 14.4212 -11.3622
rtoes -13.3534
lfemur -18.551 -36.8526 -10.5976
ltibia 27.1067
lfoot -42.5005 19.0638
ltoes 51.0157
163
root -1.89089 19.4277 11.1952 20.8055 10.06 -11.8511
lowerback 1.48837 -4.6506 6.84885
upperback -5.87546 -5.54172 6.24518
thorax -7.0484 -2.92934 3.1947
lowerneck -20.421 -1.6008 -3.40563
upperneck 13.2408 -2.24809 5.81892
head 7.52228 -0.675558 2.20795
rclavicle -5.63058e-014 2.0276e-014
rhumerus 39.9904 19.2028 -27.7182
rradius 69.1065
rwrist 3.52784
rhand -19.7085 -45.5497
rfingers 7.12502
rthumb 6.62118 284.574
lclavicle -5.63058e-014 2.0276e-014
lhumerus 53.0882 -14.7622 15.0067
lradius 64.3255
lwrist 12.9344
lhand -20.2144 -36.8848
lfingers 7.12502
lthumb 6.13279 -6.99355
rfemur -109.637 2.63767 20.1716
rtibia 59.3453
rfoot 15.4979 -11.0608
rtoes -12.8689
lfemur -16.6095 -33.3138 -11.255
ltibia 25.4554
lfoot -35.7543 30.1404
ltoes 46.7028
164
root -1.86433 19.7023 11.5944 21.4404 10.6648 -11.2955
lowerback 1.30826 -4.85734 7.32463
upperback -6.23675 -5.77779 6.35154
thorax -7.38138 -3.07488 3.08856
lowerneck -20.6823 -1.57626 -3.36766
upperneck 13.5162 -2.06325 4.91152
head 7.63452 -0.669716 1.92405
rclavicle 5.27773e-014 -2.46493e-014
rhumerus 40.3516 18.0279 -25.2186
rradius 66.7787
rwrist 2.24452
rhand -19.9752 -44.597
rfingers 7.12502
rthumb 6.36374 285.519
lclavicle 5.27773e-014 -2.46493e-014
lhumerus 53.4543 -14.1999 12.4579
lradius 60.9945
lwrist 13.7661
lhand -24.3774 -37.1449
lfingers 7.12502
lthumb 2.11285 -7.17559
rfemur -110.83 1.59574 19.755
rtibia 58.036
rfoot 16.6692 -11.2504
rtoes -12.4807
lfemur -13.9929 -21.5894 -13.1243
ltibia 23.4172
lfoot -9.63208 37.3859
ltoes 37.1504
165
root -1.83062 19.955 12.0135 21.8039 11.3689 -10.5628
lowerback 0.888342 -5.00798 7.75564
upperback -6.39419 -5.99265 6.33369
thorax -7.36472 -3.20783 2.82871
lowerneck -20.4238 -1.65179 -3.48582
upperneck 13.3172 -2.00398 4.21669
head 7.51443 -0.721312 1.71766
rclavicle 1.42566e-014 -7.09413e-014
rhumerus 40.039 16.6675 -23.0061
rradius 64.8649
rwrist 1.09663
rhand -19.8422 -43.4258
rfingers 7.12502
rthumb 6.49212 286.694
lclavicle 1.42566e-014 -7.09413e-014
lhumerus 53.5727 -13.5671 10.8294
lradius 56.9566
lwrist 12.465
lhand -27.6032 -38.3019
lfingers 7.12502
lthumb -1.00269 -8.32446
rfemur -111.69 0.298962 19.297
rtibia 56.8515
rfoot 17.817 -11.3993
rtoes -11.9358
lfemur -10.9937 -14.6739 -14.6847
ltibia 21.2548
lfoot 10.4612 34.805
ltoes 24.9311
166
root -1.8028 20.2007 12.4336 21.9184 12.2762 -9.87953
lowerback 0.528011 -5.18986 8.24865
upperback -6.41364 -6.25383 6.29982
thorax -7.24745 -3.36391 2.51604
lowerneck -20.5501 -1.77062 -3.80549
upperneck 13.4221 -2.0063 3.85842
head 7.56887 -0.773413 1.65025
rclavicle -1.42628e-014 -3.77194e-014
rhumerus 39.4846 15.2283 -20.9656
rradius 63.049
rwrist 0.297451
rhand -19.1129 -42.2232
rfingers 7.12502
rthumb 7.19616 287.919
lclavicle -1.42628e-014 -3.77194e-014
lhumerus 53.5956 -12.777 9.60516
lradius 53.1363
lwrist 10.3921
lhand -29.6609 -39.3957
lfingers 7.12502
lthumb -2.98994 -9.43694
rfemur -112.1 -1.11851 18.6947
rtibia 55.6219
rfoot 19.0736 -11.4725
rtoes -11.8031
lfemur -7.97585 -9.87995 -15.7171
ltibia 19.3183
lfoot 22.2217 27.7849
ltoes 14.6596
167
root -1.79402 20.4325 12.8618 22.1352 12.9657 -9.24219
lowerback -0.00234924 -5.24255 8.44051
upperback -6.49258 -6.37503 6.27329
thorax -7.05693 -3.4348 2.34399
lowerneck -20.437 -1.93249 -4.40759
upperneck 13.5508 -2.05991 3.85789
head 7.60105 -0.832413 1.74181
rclavicle -3.71727e-014 -1.92821e-014
rhumerus 38.7921 14.393 -18.3072
rradius 63.3741
rwrist 2.41918
rhand -8.47506 -44.4124
rfingers 7.12502
rthumb 17.4517 286.351
lclavicle -3.71727e-014 -1.92821e-014
lhumerus 53.3771 -11.9535 9.0494
lradius 49.3791
lwrist 8.08968
lhand -30.0251 -39.9833
lfingers 7.12502
lthumb -3.34169 -10.0297
rfemur -112.398 -2.18362 17.5303
rtibia 54.3524
rfoot 20.4217 -11.7248
rtoes -11.996
lfemur -5.29479 -6.58348 -16.4169
ltibia 17.7272
lfoot 28.0859 19.6818
ltoes 6.59873
168
root -1.78216 20.6554 13.3003 22.2065 13.6873 -8.85623
lowerback -0.624797 -5.28247 8.90035
upperback -6.50012 -6.48753 6.27899
thorax -6.76876 -3.51127 2.04586
lowerneck -20.228 -2.024 -4.99938
upperneck 13.6971 -2.04928 3.97558
head 7.62184 -0.850006 1.87956
rclavicle 7.45443e-014 -1.19271e-015
rhumerus 36.916 12.9961 -16.8729
rradius 60.0001
rwrist -0.921821
rhand -17.8894 -40.5869
rfingers 7.12502
rthumb 8.37705 289.599
lclavicle 7.45443e-014 -1.19271e-015
lhumerus 52.8466 -11.1187 8.64603
lradius 45.8783
lwrist 6.60433
lhand -29.1682 -38.6188
lfingers 7.12502
lthumb -2.51416 -8.65382
rfemur -112.373 -3.19237 16.6436
rtibia 53.0288
rfoot 21.5572 -12.0015
rtoes -12.0978
lfemur -3.07177 -4.82684 -16.6969
ltibia 16.635
lfoot 30.5935 10.3873
ltoes -6.16503
169
root -1.75961 20.8576 13.7437 21.7913 14.7871 -8.38214
lowerback -0.996267 -5.50664 9.56415
upperback -6.33664 -6.82952 6.22639
thorax -6.48907 -3.70656 1.60883
lowerneck -20.1439 -2.04028 -5.32836
upperneck 14.1346 -1.96182 3.81544
head 7.75078 -0.844976 1.89291
rclavicle -4.34841e-014 -1.07344e-014
rhumerus 35.6553 11.4969 -15.7768
rradius 57.6965
rwrist -0.285325
rhand -18.0651 -41.6653
rfingers 7.12502
rthumb 8.20749 288.514
lclavicle -4.34841e-014 -1.07344e-014
lhumerus 51.9851 -10.5457 7.94349
lradius 42.8522
lwrist 6.92123
lhand -28.1093 -34.6355
lfingers 7.12502
lthumb -1.49144 -4.66094
rfemur -111.811 -4.68065 16.3066
rtibia 51.7981
rfoot 22.5641 -11.8718
rtoes -12.6634
lfemur -0.410707 -4.10354 -16.9303
ltibia 16.0258
lfoot 31.1098 4.44531
ltoes -8.83453
170
root -1.76443 21.0341 14.2073 21.3728 15.3555 -7.93136
lowerback -1.6201 -5.61801 9.61703
upperback -6.20246 -7.07539 6.2042
thorax -6.00847 -3.81972 1.48561
lowerneck -19.5447 -2.05336 -5.76272
upperneck 14.7191 -1.8732 3.6612
head 7.84298 -0.852218 1.92755
rclavicle -3.39425e-014 -1.07344e-014
rhumerus 34.8411 10.3963 -14.7442
rradius 55.0674
rwrist 0.0574882
rhand -19.681 -44.8842
rfingers 7.12502
rthumb 6.64774 285.24
lclavicle -3.39425e-014 -1.07344e-014
lhumerus 50.7159 -10.1901 7.598
lradius 40.2637
lwrist 8.54627
lhand -29.5513 -36.4164
lfingers 7.12502
lthumb -2.88416 -6.45619
rfemur -111.098 -5.44394 15.5985
rtibia 50.513
rfoot 23.5861 -12.5186
rtoes -12.9676
lfemur 2.20547 -3.94901 -17.2462
ltibia 15.8409
lfoot 30.9913 1.63182
ltoes -8.54714
171
root -1.76488 21.1975 14.6646 21.1327 15.7315 -7.28342
lowerback -2.11781 -5.74672 9.61368
upperback -6.38653 -7.30515 6.03031
thorax -5.95733 -3.94199 1.27884
lowerneck -18.5989 -1.97634 -6.36167
upperneck 15.5584 -1.70629 3.80751
head 7.95996 -0.809107 2.10255
rclavicle 9.24349e-015 7.95139e-015
rhumerus 33.9795 10.2725 -13.3896
rradius 52.9639
rwrist -0.487144
rhand -20.148 -45.3626
rfingers 7.12502
rthumb 6.1969 284.748
lclavicle 9.24349e-015 7.95139e-015
lhumerus 49.0326 -10.1368 7.64965
lradius 38.1389
lwrist 9.54034
lhand -28.6608 -35.1936
lfingers 7.12502
lthumb -2.02413 -5.22344
rfemur -110.472 -6.17266 15.2107
rtibia 49.2362
rfoot 24.4383 -13.2574
rtoes -13.0626
lfemur 4.63665 -3.93951 -17.8255
ltibia 15.7636
lfoot 30.7479 -0.23122
ltoes -8.76022
